<svg width="108" height="104" viewBox="0 0 108 104.284" xmlns="http://www.w3.org/2000/svg" xmlns:xlink="http://www.w3.org/1999/xlink">
    <defs/>
    <g transform="translate(1,1)">
        <path fill="#423f46" d="M0,0L12.5,0L12.5,7.8L0,7.8L0,0z" id="shape1" transform="translate(14.48,0)"/>
        <path fill="#423f46" d="M12.8,0L93.2,0C100.3,0,106,5.6,106,12.6L106,63.5C106,70.4,100.3,76.1,93.2,76.1L12.8,76.1C5.7,76.1,0,70.4,0,63.5L0,12.6C0,5.6,5.7,0,12.8,0z" id="shape2" transform="translate(0,3.9)"/>
        <g transform="translate(34.89,11.06)">
            <g>
                <path fill="#3598db" d="M0,30.9C0,13.8,14,0,31.3,0C48.5,0,62.5,13.8,62.5,30.9C62.5,48,48.5,61.8,31.3,61.8C14,61.8,0,48,0,30.9z" id="shape3"/>
                <path fill="#297fb8" d="M0,27.3C0,12.2,12.4,0,27.7,0C42.9,0,55.3,12.2,55.3,27.3C55.3,42.4,42.9,54.6,27.7,54.6C12.4,54.6,0,42.4,0,27.3z" id="shape4" transform="translate(3.62,3.57)"/>
                <path fill="#58d68d" d="M0,22.2C0,9.9,10.1,0,22.5,0C34.9,0,45,9.9,45,22.2C45,34.5,34.9,44.4,22.5,44.4C10.1,44.4,0,34.5,0,22.2z" id="shape5" transform="translate(8.79,8.68)"/>
                <path fill="#34495e" d="M0,16.1C0,7.2,7.3,0,16.3,0C25.3,0,32.6,7.2,32.6,16.1C32.6,25,25.3,32.2,16.3,32.2C7.3,32.2,0,25,0,16.1z" id="shape6" transform="translate(14.99,14.81)"/>
            </g>
            <path fill="#ffffff" d="M0,4.3C0,1.9,2,0,4.4,0C6.8,0,8.8,1.9,8.8,4.3C8.8,6.7,6.8,8.7,4.4,8.7C2,8.7,0,6.7,0,4.3z" id="shape7" transform="translate(31.27,19.15)"/>
        </g>
        <path fill="#9a59b5" d="M3.3,0L17.8,0C19.6,0,21.1,1.5,21.1,3.3C21.1,5,19.6,6.5,17.8,6.5L3.3,6.5C1.5,6.5,0,5,0,3.3C0,1.5,1.5,0,3.3,0z" id="shape8" transform="translate(10.53,10.41)"/>
        <g transform="translate(9.88,59.84)">
            <path fill="#ffffff" d="M2,0C3.1,0,4,.2,4,.5L4,8.6C4,8.9,3.1,9.1,2,9.1C.9,9.1,0,8.9,0,8.6L0,.5C0,.2,.9,0,2,0z" id="shape9"/>
            <path fill="#ffffff" d="M2,0C3.1,0,4,.2,4,.5L4,8.6C4,8.9,3.1,9.1,2,9.1C.9,9.1,0,8.9,0,8.6L0,.5C0,.2,.9,0,2,0z" id="shape10" transform="translate(9.22,0)"/>
        </g>
    </g>
</svg>
