<svg viewBox="0 0 183 204" xmlns:xlink="http://www.w3.org/1999/xlink" width="183" height="204" xmlns="http://www.w3.org/2000/svg">
    <defs/>
    <g transform="translate(-1291.99,-19.29)">
        <g transform="translate(1303.04,20.29)">
            <path d="M.7,0L170.6,0C171,0,171.3,.3,171.3,.7L171.3,102.9C171.3,103.3,171,103.7,170.6,103.7L.7,103.7C.3,103.7,0,103.3,0,102.9L0,.7C0,.3,.3,0,.7,0z" fill="#000000" stroke="#000000" id="shape1"/>
            <path transform="translate(4.88,4.53)" d="M0,0L161.6,0L161.6,94.6L0,94.6L0,0z" fill="#ffffff" stroke="#ffffff" id="shape2"/>
        </g>
        <g transform="translate(1293,51.93)">
            <path transform="translate(27.37,1.39)" d="M0,14.5C0,6.5,6.5,0,14.5,0C22.4,0,28.9,6.5,28.9,14.5C28.9,22.4,22.4,28.9,14.5,28.9C6.5,28.9,0,22.4,0,14.5z" fill="#000000" stroke="#000000" id="shape3"/>
            <path transform="translate(0,23.07)" d="M58.2,144.5C58.2,144.5,58.2,43.2,58.2,28.2C58.2,28.2,59.7,28.2,59.7,28.2C64.7,31.2,69.3,34,72.3,33.5C75.3,33.1,77.7,30.4,79.7,26.1C81.7,22,86.9,5.6,86.9,5.6C86.9,5.6,87.9,1.9,84.1,.4C80.3,-1.2,78.3,2.1,78.3,2.1C78.3,2.1,72.1,21.3,70.9,21.5C69.3,21.7,58.3,12.6,58.3,12.6C58.3,12.6,55.4,9.7,51.5,9.7C51.5,9.7,31.7,9.7,31.7,9.7C31.7,9.7,26.1,9.2,19.8,16.7C13.2,24.5,0,56.6,.2,56.6C0,56.6,-0.9,60.7,3.4,62.1C8.2,63.7,9.8,59.5,9.8,59.5L23.8,28.2L25.9,28.9L25.7,144.9C25.7,144.9,25.9,147.7,31.5,147.7C37.2,147.7,37.2,145.5,37.2,145.5L37.2,76.3L47,76.3L47.1,144.8C47.1,144.8,47.1,147.7,52.7,147.7C58.2,147.7,58.2,144.5,58.2,144.5z" fill="#000000" stroke="#000000" id="shape4"/>
            <path transform="translate(79.8,-0)" d="M0,31.2L4.1,0L5.3,0L1.7,31.2L0,31.2z" fill="#000000" stroke="#000000" id="shape5"/>
        </g>
    </g>
</svg>
